<?xml version="1.0" encoding="UTF-8"?>
<svg width="8.5in" height="11in" clip-rule="evenodd" enable-background="new 0 0 549.176 215.997" fill-rule="evenodd" image-rendering="optimizeQuality" shape-rendering="geometricPrecision" text-rendering="geometricPrecision" version="1.1" viewBox="0 0 8500 11000" xmlns="http://www.w3.org/2000/svg">
 <defs>
  <style type="text/css">.str0 {stroke:#FFCC99;stroke-width:27.7756} .fil1 {fill:black} .fil0 {fill:#FFCC99}</style>
 </defs>
 <path class="fil0 str0" d="m4179 4353c-427-10-871-88-1282-160-116-20-227-32-337-55-293-62-578-19-843 82-133-13-246 64-345 119 42-59 110-88 177-119-49-16-110 33-161 46 9-65 84-57 120-91-32-24-64 30-112 18 23-41 74-50 104-82-34-27-95 35-137 55 13 92-47 140-32 219-41-21-14-66-16-101-11-238-37-560-185-658 93-266 346-350 562-475 459-126 931-64 1413 37 273 57 554 117 811 146 64 7 135 10 205 8v-5l54 3h3c70 2 141-1 205-8 257-29 538-89 811-146 482-101 955-162 1413-37 216 126 469 210 562 475-147 99-173 420-185 658-2 35 25 80-16 101 15-80-45-128-32-219-42-20-102-82-137-55 30 33 82 41 104 82-48 12-80-42-112-18 36 35 111 26 120 91-50-13-112-62-161-46 67 31 135 60 177 119-99-55-212-132-345-119-266-101-550-144-843-82-110 23-222 35-337 55-393 69-815 143-1225 158v4zm2863 432c94-200-103-324-217-402-66 10-167-94-305-128-81-20-135-18-209-27 23 26 68 26 88 55-29 23-51-39-104-18 13 28 50 29 64 55-17 9-96-69-120 0 40 0 76 5 96 27-31 17-77-26-112 9 18 25 71 10 80 46-14 13-120-46-128 18 38-4 58 13 88 18-26 19-96-20-120 18 22 18 70 6 88 27-16 21-67 3-96 9 19 15 49 18 72 27-36 30-92-20-129 9 1 39 51 21 64 46-2 13-40-8-64 0-26 13 28 9 40 9-94 23-174 64-201 165 87 86 210 126 329 146 159 27 274-79 410-110-67-49-153 23-225 27 31-29 79-38 120-55-38-23-48 7-96 0 8-27 58-8 56-46-39 8-80 13-120 18 23-23 62-27 96-37-23-23-87 8-72-37-65 16-213 5-289 9 28 37 100 24 128 37-32 29-135-7-193-9 21 43 65 60 129 55-18 32-64 23 8 27-78 25-163-21-201-73 95-90 300-55 434-101 185 60 513 432 691 137 4-300-224-399-426-494 84 79 374 207 410 393 12 61 7 156-64 146zm-265-338c-74-50-151-97-233-137 101 20 206 33 233 137zm-32 37c-62-1-117-85-201-91 63-37 174 27 201 91zm-32 55c-45-52-138-50-177-110 63 26 189 28 177 110zm0 82c-56-65-162-71-217-128 85 28 196 27 217 128zm-201-46c49 9 140 31 169 91-36-11-144-68-169-91zm-394 256c-66-20-170-43-161-119 2-7 7-11 16-9 22 72 104 77 145 128zm289 18c5 23-239 45-225-9 39 32 219-18 225 9zm1630-347c-66 14-72-102-185-64 16-31 80-7 104-27-35-12-62-33-112-27 24-54 125-7 153-18-17-62-88-26-128-46 31-36 65-14 120-18-10-50-95-30-120-37 12-23 74-37 96-18 18-27-36-50-72-46 19-38 68 12 96-18-12-32-46-40-88-37 11-27 45-28 80-27-17-26-53-31-96-27 15-61 80-9 96-64-24-17-58-35-88-18 16-27 45-40 88-37-19-16-72-28-96-9-5-51 60-23 80-46-8-24-33-30-64-27 24-33 76-26 104-9-11-52-61-58-120-55 17-36 73-33 104-27-18-31-64-30-104-37 27-36 76-21 120-18-20-44-87-53-137-37 23-50 87-25 137-27-18-41-73-39-129-37 14-36 70-24 112-27-8-46-73-27-112-37 20-54 102-13 145-9-26-37-78-46-112-73 48-30 91 24 129 37-16-93-141-105-233-82 40-88 150-13 225-9-66-98-282-58-313 46 46 104 68 234 72 347 7 159 13 452-48 603-34 84-144 134-112 311 24 133 285 225 305 0-28 141-240 134-281 9-23-181 56-247 161-283 216-14 357 211 241 402-63 104-190 128-313 137-230 16-462-164-626-183 67 56 164 78 257 119 142 62 372 121 570 55 20-35 64-43 96-64-4-32 7-47 24-55 105-85 36-289-24-384zm-16 192c-16 25-74 39-48 82 23-19 43-42 48-82zm-249-73c0 30 23 35 48 37v-37c-14-17-20 7-48 0zm-48-18c-31 75 54 96 88 128-43 34-75-24-104-37 19 48 50 83 104 91-29 27-77-3-104-9 51 96 236 30 169-101-54 21-48 0-112 0-11-27-42-31-40-73zm281-27c-20 41-35 88-48 137 48-9 50-71 48-137zm-217-18c-30 23 19 32 24 46 11-3 7-23 8-37-13-1-31 4-32-9zm96-46c-40 6-28 71-40 110 25 11 57 14 88 18-4-38-38-25 0-46 6-25-17-18-24-27 2-13 24-3 24-18 6-37-40-15-48-37zm-795-649c60-18 156-36 193 18-20 52-103-14-161 18 34 40 139 0 161 55-46 20-185-42-233 37 55-18 147-13 185 18-37 37-120-24-177 18 36 44 125 28 169 64-48 21-108-24-177-9 39 50 130 41 185 73-56 36-167-70-209 9 78-6 131 16 185 37-27 32-135-44-185 9 62 18 130 28 185 55-49 31-113-35-193 0 35 29 163 2 193 64-69 7-133-42-185 0 29 49 157-14 177 46-63 24-108-6-161 9 29 61 124-3 169 46-27 21-88 3-128 9 21 55 128 13 161 55-22 25-110-2-120 9 14 57 108 24 145 55-21 51-81-25-112 9 7 50 73 33 96 64-26 38-65-35-88 0-12 61 114 24 128 101-34 29-81-53-120-18 14 52 104 15 112 73-58 18-114-58-129 18 68 14 111 56 185 64 189 114 545 186 691-27-20-1-25 14-40 18-6-17 36-56 48-82-46-3-102 61-120 119-185 76-339-35-329-229 7-135 113-232 145-338 8-106 18-254 16-384-209-11-462-196-659-82zm40-283c-59-48-126-88-185-137 76 29 150 61 185 137zm-40 55c-32-45-74-80-112-119 57 12 146 62 112 119zm-16 46c-54-15-71-72-120-91 42-6 118 23 120 91zm-16 55c-33-4-83-63-129-82 57 12 125 10 129 82zm-40 64c-33-54-109-59-153-101 71 5 161 35 153 101zm-8 46c-33 30-27 103-64 128 28 45 32 139-24 174-4-57-66-47-88-82 31-19 71 19 112 18-13-65-92-50-120-73 32-29 78 18 96 0-13-34-52-39-96-37 11-62 59 8 104-9-5-56-86-24-96-73 48-12 102 45 120 9-18-26-41-44-88-37 27-50 90 8 104-9-11-45-98-53-88-91 48 22 106 31 128 82zm-5751 944c-94-200 103-324 217-402 66 10 167-94 305-128 81-20 135-18 209-27-23 26-68 26-88 55 29 23 51-39 104-18-13 28-50 29-64 55 17 9 96-69 120 0-40 0-76 5-96 27 31 17 77-26 112 9-18 25-71 10-80 46 14 13 120-46 128 18-38-4-58 13-88 18 26 19 96-20 120 18-22 18-70 6-88 27 16 21 67 3 96 9-19 15-49 18-72 27 36 30 92-20 129 9-1 39-51 21-64 46 2 13 40-8 64 0 26 13-28 9-40 9 94 23 174 64 201 165-87 86-210 126-329 146-159 27-274-79-410-110 67-49 153 23 225 27-31-29-79-38-120-55 38-23 48 7 96 0-8-27-58-8-56-46 39 8 80 13 120 18-23-23-62-27-96-37 23-23 87 8 72-37 65 16 213 5 289 9-28 37-100 24-128 37 32 29 135-7 193-9-21 43-65 60-129 55 18 32 64 23-8 27 78 25 163-21 201-73-95-90-300-55-434-101-185 60-513 432-691 137-4-300 224-399 426-494-84 79-374 207-410 393-12 61-7 156 64 146zm265-338c74-50 151-97 233-137-101 20-206 33-233 137zm32 37c62-1 117-85 201-91-63-37-174 27-201 91zm32 55c45-52 138-50 177-110-63 26-189 28-177 110zm0 82c56-65 162-71 217-128-85 28-196 27-217 128zm201-46c-49 9-140 31-169 91 36-11 144-68 169-91zm394 256c66-20 170-43 161-119-2-7-7-11-16-9-22 72-104 77-145 128zm-289 18c-5 23 239 45 225-9-39 32-219-18-225 9zm-1630-347c66 14 72-102 185-64-16-31-80-7-104-27 35-12 62-33 112-27-24-54-125-7-153-18 17-62 88-26 128-46-31-36-65-14-120-18 10-50 95-30 120-37-12-23-74-37-96-18-18-27 36-50 72-46-19-38-68 12-96-18 12-32 46-40 88-37-11-27-45-28-80-27 17-26 53-31 96-27-15-61-80-9-96-64 24-17 58-35 88-18-16-27-45-40-88-37 19-16 72-28 96-9 5-51-60-23-80-46 8-24 33-30 64-27-24-33-76-26-104-9 11-52 61-58 120-55-17-36-73-33-104-27 18-31 64-30 104-37-27-36-76-21-120-18 20-44 87-53 137-37-23-50-87-25-137-27 18-41 73-39 129-37-14-36-70-24-112-27 8-46 73-27 112-37-20-54-102-13-145-9 26-37 78-46 112-73-48-30-91 24-129 37 16-93 141-105 233-82-40-88-150-13-225-9 66-98 282-58 313 46-46 104-68 234-72 347-7 159-13 452 48 603 34 84 144 134 112 311-24 133-285 225-305 0 28 141 240 134 281 9 23-181-56-247-161-283-216-14-357 211-241 402 63 104 190 128 313 137 230 16 462-164 626-183-67 56-164 78-257 119-142 62-372 121-570 55-20-35-64-43-96-64 4-32-7-47-24-55-105-85-36-289 24-384zm16 192c16 25 74 39 48 82-23-19-43-42-48-82zm249-73c0 30-23 35-48 37v-37c14-17 20 7 48 0zm48-18c31 75-54 96-88 128 43 34 75-24 104-37-19 48-50 83-104 91 29 27 77-3 104-9-51 96-236 30-169-101 54 21 48 0 112 0 11-27 42-31 40-73zm-281-27c20 41 35 88 48 137-48-9-50-71-48-137zm217-18c30 23-19 32-24 46-11-3-7-23-8-37 13-1 31 4 32-9zm-96-46c40 6 28 71 40 110-25 11-57 14-88 18 4-38 38-25 0-46-6-25 17-18 24-27-2-13-24-3-24-18-6-37 40-15 48-37zm795-649c-60-18-156-36-193 18 20 52 103-14 161 18-34 40-139 0-161 55 46 20 185-42 233 37-55-18-147-13-185 18 37 37 120-24 177 18-36 44-125 28-169 64 48 21 108-24 177-9-39 50-130 41-185 73 56 36 167-70 209 9-78-6-131 16-185 37 27 32 135-44 185 9-62 18-130 28-185 55 49 31 113-35 193 0-35 29-163 2-193 64 69 7 133-42 185 0-29 49-157-14-177 46 63 24 108-6 161 9-29 61-124-3-169 46 27 21 88 3 128 9-21 55-128 13-161 55 22 25 110-2 120 9-14 57-108 24-145 55 21 51 81-25 112 9-7 50-73 33-96 64 26 38 65-35 88 0 12 61-114 24-128 101 34 29 81-53 120-18-14 52-104 15-112 73 58 18 114-58 129 18-68 14-111 56-185 64-189 114-545 186-691-27 20-1 25 14 40 18 6-17-36-56-48-82 46-3 102 61 120 119 185 76 339-35 329-229-7-135-113-232-145-338-8-106-18-254-16-384 209-11 462-196 659-82zm-40-283c59-48 126-88 185-137-76 29-150 61-185 137zm40 55c32-45 74-80 112-119-57 12-146 62-112 119zm16 46c54-15 71-72 120-91-42-6-118 23-120 91zm16 55c33-4 83-63 129-82-57 12-125 10-129 82zm40 64c33-54 109-59 153-101-71 5-161 35-153 101zm8 46c33 30 27 103 64 128-28 45-32 139 24 174 4-57 66-47 88-82-31-19-71 19-112 18 13-65 92-50 120-73-32-29-78 18-96 0 13-34 52-39 96-37-11-62-59 8-104-9 5-56 86-24 96-73-48-12-102 45-120 9 18-26 41-44 88-37-27-50-90 8-104-9 11-45 98-53 88-91-48 22-106 31-128 82z"/>
 <path class="fil1" d="m1355 3446c-59 49-125 89-185 137 35-76 109-108 185-137zm2824 956c198-5 399-21 599-44 493-56 915-191 1462-174-76 218-231 347-369 494 4 43 13 67 24 119 130 134 466 201 667 91 29-16 47-50 80-55 110-17 243 157 394 64 224 50 453 199 675 192 202-7 441-70 450-329 5-148-86-217-112-338-26-119-22-303-16-466 4-112 4-254 24-338 9-37 50-78 48-119-7-194-379-193-442-46 45 119 94 234 88 411-133 27-248-62-369-91-93-23-173 26-273 9 28-115 162-95 88-256-88-192-404-370-578-439-163-65-561-103-795-82-507 46-929 221-1422 265-91 8-185 10-278 6v4c-74 1-149-1-221-8-492-44-914-220-1422-265-235-21-632 18-795 82-175 69-491 247-578 439-73 161 60 141 88 256-100 17-180-32-273-9-122 30-236 118-369 91-6-178 43-292 88-411-63-147-435-148-442 46-1 41 40 82 48 119 20 85 20 226 24 338 6 163 10 348-16 466-26 121-117 191-112 338 8 259 248 323 450 329 222 7 450-142 675-192 150 93 284-81 394-64 34 5 52 39 80 55 201 109 536 42 667-91 11-52 20-75 24-119-139-147-293-276-369-494 546-17 969 118 1462 174 219 25 440 42 655 45v-3zm-3-1060c71 2 143-1 208-8 257-29 538-89 811-146 482-101 955-162 1413-37 216 126 469 210 562 475-147 99-173 420-185 658-2 35 25 80-16 101 15-80-45-128-32-219-42-20-102-82-137-55 30 33 82 41 104 82-48 12-80-42-112-18 36 35 111 26 120 91-50-13-112-62-161-46 67 31 135 60 177 119-99-55-212-132-345-119-266-101-550-144-843-82-110 23-222 35-337 55-411 72-854 150-1282 160v1c-410-15-832-89-1225-158-116-20-227-32-337-55-293-62-578-19-843 82-133-13-246 64-345 119 42-59 110-88 177-119-49-16-110 33-161 46 9-66 84-57 120-91-32-24-64 30-112 18 23-41 74-50 104-82-34-27-95 35-137 55 13 92-47 140-32 219-41-21-14-66-16-101-11-238-37-560-185-658 93-266 346-350 562-475 459-126 931-64 1413 37 273 57 554 117 811 146 81 9 173 11 259 6zm3886 1547c-17 8-28 23-24 55-32 21-76 29-96 64-198 67-429 7-570-55-93-41-190-63-257-119 164 19 396 199 626 183 123-9 250-34 313-137 116-192-25-416-241-402-104 37-183 102-161 283 41 125 253 132 281-9-20 225-281 133-305 0-32-177 79-227 112-311 61-152 55-445 48-603-5-114-26-244-72-347 31-104 247-144 313-46-75-4-185-78-225 9 92-22 217-11 233 82-38-12-80-67-129-37 35 28 86 36 112 73-42-4-125-45-145 9 39 10 105-9 112 37-43 3-98-8-112 27 55-2 111-4 129 37-50 2-113-22-137 27 49-16 117-8 137 37-45-2-93-17-120 18 40 6 86 6 104 37-32-5-87-9-104 27 59-3 110 3 120 55-29-17-81-24-104 9 32-2 56 4 64 27-20 23-85-5-80 46 25-19 78-7 96 9-43-4-72 9-88 37 30-17 65 2 88 18-17 55-81 4-96 64 43-3 79 1 96 27-35-1-69 1-80 27 43-3 77 4 88 37-29 30-77-20-96 18 36-4 90 18 72 46-23-19-84-5-96 18 26 7 110-13 120 37-56 4-89-18-120 18 41 20 112-16 128 46-28 11-128-36-153 18 50-5 78 15 112 27-25 21-88-3-104 27 113-38 118 78 185 64 60 95 129 299 24 384zm-313-942c2 130-8 278-16 384-31 106-138 203-145 338-10 193 144 305 329 229 19-58 74-122 120-119-12 26-55 65-48 82 15-4 20-20 40-18-146 213-502 142-691 27-73-8-117-50-185-64 14-76 71 0 129-18-8-58-99-21-112-73 39-35 86 47 120 18-15-77-141-40-128-101 23-35 62 38 88 0-24-31-89-14-96-64 31-34 92 41 112-9-37-31-131 2-145-55 10-11 98 16 120-9-33-42-139 0-161-55 40-6 102 12 128-9-44-49-139 15-169-46 53-15 98 15 161-9-20-60-148 4-177-46 52-42 116 7 185 0-30-62-158-35-193-64 80-35 144 31 193 0-54-27-123-37-185-55 50-53 158 23 185-9-54-21-107-43-185-37 42-80 153 27 209-9-55-32-146-23-185-73 69-14 128 30 177 9-43-36-133-20-169-64 57-42 140 18 177-18-37-31-130-36-185-18 48-78 187-16 233-37-21-55-126-15-161-55 58-32 140 34 161-18-37-54-133-36-193-18 197-114 450 71 659 82zm-643 695c-36-186-326-314-410-393 201 95 430 194 426 494-178 295-506-77-691-137-134 46-339 10-434 101 37 52 123 98 201 73-72-4-26 5-8-27-63 5-108-11-129-55 58 2 161 38 193 9-28-12-101 0-128-37 76-4 224 7 289-9-15 45 49 13 72 37-35 9-74 14-96 37 40-6 82-11 120-18 1 38-48 18-56 46 48 7 58-23 96 0-41 17-90 26-120 55 72-5 157-77 225-27-136 30-251 137-410 110-119-20-243-60-329-146 27-100 106-141 201-165-12 0-66 3-40-9 24-8 62 13 64 0-13-25-64-7-64-46 37-29 93 21 129-9-24-10-53-13-72-27 30-6 80 12 96-9-18-22-66-10-88-27 25-38 95 1 120-18-30-5-50-22-88-18 8-64 115-5 128-18-9-36-62-20-80-46 35-35 81 8 112-9-20-23-56-28-96-27 24-69 103 9 120 0-15-26-52-27-64-55 53-21 76 42 104 18-20-29-66-29-88-55 74 9 128 7 209 27 139 34 239 138 305 128 114 79 311 203 217 402 72 9 76-86 64-146zm827-91c0 15-22 5-24 18 7 10 30 3 24 27-38 21-4 8 0 46-31-4-64-7-88-18 12-38 0-104 40-110 8 21 54 0 48 37zm-112 18c-1 14 3 34-8 37-5-14-54-23-24-46 1 14 19 8 32 9zm137 146c13-49 28-96 48-137 2 67 0 128-48 137zm-193-37c64 0 59 21 112 0 68 131-117 197-169 101 27 6 75 36 104 9-54-9-85-43-104-91 29 13 61 70 104 37-34-32-119-53-88-128-2 42 29 46 40 73zm56-55v37c-25-2-48-6-48-37 28 7 34-17 48 0zm153 155c-26-44 32-58 48-82-5 40-25 63-48 82zm-1293-110c-29-60-120-83-169-91 25 24 133 80 169 91zm-498 174c-14 54 230 32 225 9-6-27-186 23-225-9zm-209-137c-9-1-14 2-16 9-9 75 95 99 161 119-40-52-122-56-145-128zm522-210c55 58 160 63 217 128-21-101-132-100-217-128zm40-64c39 60 132 57 177 110 12-82-113-83-177-110zm8-37c84 6 139 90 201 91-27-65-138-129-201-91zm0-82c82 41 159 87 233 137-26-104-132-118-233-137zm337-549c-10 39 77 46 88 91-14 17-77-41-104 9 47-8 71 11 88 37-18 36-72-21-120-9 10 49 92 17 96 73-46 18-94-53-104 9 45-2 84 2 96 37-19 18-64-29-96 0 29 24 108 8 120 73-41 1-82-37-112-18 22 36 85 26 88 82 56-34 52-129 24-174 37-25 31-98 64-128-22-51-80-61-128-82zm-16-64c44 42 120 46 153 101 8-66-81-95-153-101zm64-46c46 20 96 78 129 82-3-72-72-70-129-82zm24-64c50 19 67 77 120 91-2-69-78-98-120-91zm24-73c38 39 80 73 112 119 34-57-55-107-112-119zm-32-73c59 49 125 89 185 137-35-76-109-108-185-137zm-5326 1228c29-60 120-83 169-91-25 24-133 80-169 91zm-1381 219c17 8 28 23 24 55 32 21 76 29 96 64 198 67 429 7 570-55 93-41 190-63 257-119-164 19-396 199-626 183-123-9-250-34-313-137-116-192 25-416 241-402 104 37 183 102 161 283-41 125-253 132-281-9 20 225 281 133 305 0 32-177-79-227-112-311-61-152-55-445-48-603 5-114 26-244 72-347-31-104-247-144-313-46 75-4 185-78 225 9-92-22-217-11-233 82 38-12 80-67 129-37-35 28-86 36-112 73 42-4 125-45 145 9-39 10-105-9-112 37 43 3 98-8 112 27-55-2-111-4-129 37 50 2 113-22 137 27-49-16-117-8-137 37 45-2 93-17 120 18-40 6-86 6-104 37 32-5 87-9 104 27-59-3-110 3-120 55 29-17 81-24 104 9-32-2-56 4-64 27 20 23 85-5 80 46-25-19-78-7-96 9 43-4 72 9 88 37-30-17-65 2-88 18 17 55 81 4 96 64-43-3-79 1-96 27 35-1 69 1 80 27-43-3-77 4-88 37 29 30 77-20 96 18-36-4-90 18-72 46 23-19 84-5 96 18-26 7-110-13-120 37 56 4 89-18 120 18-41 20-112-16-128 46 28 11 128-36 153 18-50-5-78 15-112 27 25 21 88-3 104 27-113-38-118 78-185 64-60 95-129 299-24 384zm313-942c-2 130 8 278 16 384 31 106 138 203 145 338 10 193-144 305-329 229-19-58-74-122-120-119 12 26 55 65 48 82-15-4-20-20-40-18 146 213 502 142 691 27 73-8 117-50 185-64-14-76-71 0-129-18 8-58 99-21 112-73-39-35-86 47-120 18 15-77 141-40 128-101-23-35-62 38-88 0 24-31 89-14 96-64-31-34-92 41-112-9 37-31 131 2 145-55-10-11-98 16-120-9 33-42 139 0 161-55-40-6-102 12-128-9 44-49 139 15 169-46-53-15-98 15-161-9 20-60 148 4 177-46-52-42-116 7-185 0 30-62 158-35 193-64-80-35-144 31-193 0 54-27 123-37 185-55-50-53-158 23-185-9 54-21 107-43 185-37-42-80-153 27-209-9 55-32 146-23 185-73-69-14-128 30-177 9 43-36 133-20 169-64-57-42-140 18-177-18 37-31 130-36 185-18-48-78-187-16-233-37 21-55 126-15 161-55-58-32-140 34-161-18 37-54 133-36 193-18-197-114-450 71-659 82zm643 695c36-186 326-314 410-393-201 95-430 194-426 494 178 295 506-77 691-137 134 46 339 10 434 101-37 52-123 98-201 73 72-4 26 5 8-27 63 5 108-11 129-55-58 2-161 38-193 9 28-12 101 0 128-37-76-4-224 7-289-9 15 45-49 13-72 37 35 9 74 14 96 37-40-6-82-11-120-18-1 38 48 18 56 46-48 7-58-23-96 0 41 17 90 26 120 55-72-5-157-77-225-27 136 30 251 137 410 110 119-20 243-60 329-146-27-100-106-141-201-165 12 0 66 3 40-9-24-8-62 13-64 0 13-25 64-7 64-46-37-29-93 21-129-9 24-10 53-13 72-27-30-6-80 12-96-9 18-22 66-10 88-27-25-38-95 1-120-18 30-5 50-22 88-18-8-64-115-5-128-18 9-36 62-20 80-46-35-35-81 8-112-9 20-23 56-28 96-27-24-69-103 9-120 0 15-26 52-27 64-55-53-21-76 42-104 18 20-29 66-29 88-55-74 9-128 7-209 27-139 34-239 138-305 128-114 79-311 203-217 402-72 9-76-86-64-146zm-827-91c0 15 22 5 24 18-7 10-30 3-24 27 38 21 4 8 0 46 31-4 64-7 88-18-12-38 0-104-40-110-8 21-54 0-48 37zm112 18c1 14-3 34 8 37 5-14 54-23 24-46-1 14-19 8-32 9zm-137 146c-13-49-28-96-48-137-2 67 0 128 48 137zm193-37c-64 0-59 21-112 0-68 131 117 197 169 101-27 6-75 36-104 9 54-9 85-43 104-91-29 13-61 70-104 37 34-32 119-53 88-128 2 42-29 46-40 73zm-56-55v37c25-2 48-6 48-37-28 7-34-17-48 0zm-153 155c26-44-32-58-48-82 5 40 25 63 48 82zm1791 64c14 54-230 32-225 9 6-27 186 23 225-9zm209-137c9-1 14 2 16 9 9 75-95 99-161 119 40-52 122-56 145-128zm-522-210c-55 58-160 63-217 128 21-101 132-100 217-128zm-40-64c-39 60-132 57-177 110-12-82 113-83 177-110zm-8-37c-84 6-139 90-201 91 27-65 138-129 201-91zm0-82c-82 41-159 87-233 137 26-104 132-118 233-137zm-337-549c10 39-77 46-88 91 14 17 77-41 104 9-47-8-71 11-88 37 18 36 72-21 120-9-10 49-92 17-96 73 46 18 94-53 104 9-45-2-84 2-96 37 19 18 64-29 96 0-29 24-108 8-120 73 41 1 82-37 112-18-22 36-85 26-88 82-56-34-52-129-24-174-37-25-31-98-64-128 22-51 80-61 128-82zm16-64c-44 42-120 46-153 101-8-66 81-95 153-101zm-64-46c-46 20-96 78-129 82 3-72 72-70 129-82zm-24-64c-50 19-67 77-120 91 2-69 78-98 120-91zm-24-73c-38 39-80 73-112 119-34-57 55-107 112-119z"/>
</svg>
